<mxfile host="Electron" agent="Mozilla/5.0 (Windows NT 10.0; Win64; x64) AppleWebKit/537.36 (KHTML, like Gecko) draw.io/24.7.8 Chrome/128.0.6613.36 Electron/32.0.1 Safari/537.36" version="24.7.8">
  <diagram name="Page-1" id="7AZ2iGGMSTfgzpmB2fW4">
    <mxGraphModel dx="3457" dy="2636" grid="0" gridSize="10" guides="1" tooltips="1" connect="1" arrows="1" fold="1" page="1" pageScale="1" pageWidth="850" pageHeight="1100" math="0" shadow="0">
      <root>
        <mxCell id="0" />
        <mxCell id="1" parent="0" />
        <mxCell id="fkbyZMpydI6FCDIi1KVa-1" value="MonoBehaviour" style="swimlane;fontStyle=1;align=center;verticalAlign=top;childLayout=stackLayout;horizontal=1;startSize=26;horizontalStack=0;resizeParent=1;resizeParentMax=0;resizeLast=0;collapsible=1;marginBottom=0;whiteSpace=wrap;html=1;" parent="1" vertex="1">
          <mxGeometry x="550" y="26" width="160" height="90" as="geometry" />
        </mxCell>
        <mxCell id="fkbyZMpydI6FCDIi1KVa-3" value="" style="line;strokeWidth=1;fillColor=none;align=left;verticalAlign=middle;spacingTop=-1;spacingLeft=3;spacingRight=3;rotatable=0;labelPosition=right;points=[];portConstraint=eastwest;strokeColor=inherit;" parent="fkbyZMpydI6FCDIi1KVa-1" vertex="1">
          <mxGeometry y="26" width="160" height="8" as="geometry" />
        </mxCell>
        <mxCell id="fkbyZMpydI6FCDIi1KVa-4" value="/ Start(): void&lt;div&gt;/ Update(): void&lt;br&gt;&lt;/div&gt;&lt;div&gt;/&amp;nbsp;OnApplicationQuit(): void&lt;/div&gt;" style="text;strokeColor=none;fillColor=none;align=left;verticalAlign=top;spacingLeft=4;spacingRight=4;overflow=hidden;rotatable=0;points=[[0,0.5],[1,0.5]];portConstraint=eastwest;whiteSpace=wrap;html=1;" parent="fkbyZMpydI6FCDIi1KVa-1" vertex="1">
          <mxGeometry y="34" width="160" height="56" as="geometry" />
        </mxCell>
        <mxCell id="fkbyZMpydI6FCDIi1KVa-8" value="" style="endArrow=block;endSize=16;endFill=0;html=1;rounded=0;exitX=0.5;exitY=0;exitDx=0;exitDy=0;entryX=0.501;entryY=1.009;entryDx=0;entryDy=0;entryPerimeter=0;" parent="1" source="fkbyZMpydI6FCDIi1KVa-9" target="fkbyZMpydI6FCDIi1KVa-4" edge="1">
          <mxGeometry width="160" relative="1" as="geometry">
            <mxPoint x="328" y="187" as="sourcePoint" />
            <mxPoint x="478" y="157" as="targetPoint" />
          </mxGeometry>
        </mxCell>
        <mxCell id="fkbyZMpydI6FCDIi1KVa-9" value="World" style="swimlane;fontStyle=1;align=center;verticalAlign=top;childLayout=stackLayout;horizontal=1;startSize=26;horizontalStack=0;resizeParent=1;resizeParentMax=0;resizeLast=0;collapsible=1;marginBottom=0;whiteSpace=wrap;html=1;" parent="1" vertex="1">
          <mxGeometry x="415" y="177" width="430" height="680" as="geometry" />
        </mxCell>
        <mxCell id="fkbyZMpydI6FCDIi1KVa-10" value="&lt;div&gt;+ verticalChunks = 16:&amp;nbsp;&lt;span style=&quot;background-color: initial;&quot;&gt;const int&lt;/span&gt;&lt;/div&gt;&lt;div&gt;+ worldHeight = CubicChunk.cubesPerAxis * verticalChunks:&amp;nbsp;&lt;span style=&quot;background-color: initial;&quot;&gt;const int&lt;/span&gt;&lt;/div&gt;&lt;div&gt;&lt;span style=&quot;background-color: initial;&quot;&gt;&lt;br&gt;&lt;/span&gt;&lt;/div&gt;&lt;div&gt;&lt;span style=&quot;background-color: initial;&quot;&gt;- spawnDistance:&amp;nbsp;&lt;/span&gt;&lt;span style=&quot;background-color: initial;&quot;&gt;&amp;nbsp;&lt;/span&gt;&lt;span style=&quot;background-color: initial;&quot;&gt;int&lt;/span&gt;&lt;/div&gt;&lt;div&gt;&lt;span style=&quot;background-color: initial;&quot;&gt;&lt;div&gt;- despawnDistance: int&lt;/div&gt;&lt;div&gt;- outerDiameter: int&lt;/div&gt;&lt;div&gt;- center2: Vector2Int&lt;/div&gt;&lt;div&gt;- center3: Vector3Int&lt;/div&gt;&lt;div&gt;&lt;br&gt;&lt;/div&gt;&lt;div&gt;- innerRing:&amp;nbsp;&lt;span style=&quot;background-color: initial;&quot;&gt;List&amp;lt;Vector2Int&amp;gt;&lt;/span&gt;&lt;/div&gt;&lt;/span&gt;&lt;span style=&quot;background-color: initial;&quot;&gt;&lt;div&gt;- outerRing:&amp;nbsp;&lt;span style=&quot;background-color: initial;&quot;&gt;List&amp;lt;Vector2Int&amp;gt;&lt;/span&gt;&lt;/div&gt;&lt;/span&gt;&lt;span style=&quot;background-color: initial;&quot;&gt;&lt;div&gt;- circle:&amp;nbsp;&lt;span style=&quot;background-color: initial;&quot;&gt;List&amp;lt;Vector2Int&amp;gt;&lt;/span&gt;&lt;/div&gt;&lt;/span&gt;&lt;span style=&quot;background-color: initial;&quot;&gt;&lt;div&gt;&lt;br&gt;&lt;/div&gt;&lt;div&gt;- renderedChunks:&amp;nbsp;&lt;span style=&quot;background-color: initial;&quot;&gt;CubicChunk[,,]&lt;/span&gt;&lt;/div&gt;&lt;/span&gt;&lt;span style=&quot;background-color: initial;&quot;&gt;&lt;div&gt;&lt;br&gt;&lt;/div&gt;&lt;div&gt;- chunksToBuild:&amp;nbsp;&lt;span style=&quot;background-color: initial;&quot;&gt;List&amp;lt;CubicChunk&amp;gt;&lt;/span&gt;&lt;/div&gt;&lt;/span&gt;&lt;span style=&quot;background-color: initial;&quot;&gt;&lt;div&gt;- finishedBuild:&amp;nbsp;&lt;span style=&quot;background-color: initial;&quot;&gt;List&amp;lt;CubicChunk&amp;gt;&lt;/span&gt;&lt;/div&gt;&lt;/span&gt;&lt;span style=&quot;background-color: initial;&quot;&gt;&lt;div&gt;- buildsPerFrame:&amp;nbsp;&lt;span style=&quot;background-color: initial;&quot;&gt;readonly int&lt;/span&gt;&lt;/div&gt;&lt;/span&gt;&lt;span style=&quot;background-color: initial;&quot;&gt;&lt;div&gt;- oldPos:&amp;nbsp;&lt;span style=&quot;background-color: initial;&quot;&gt;Vector2Int&lt;/span&gt;&lt;span style=&quot;background-color: initial;&quot;&gt;&amp;nbsp;&lt;/span&gt;&lt;/div&gt;&lt;/span&gt;&lt;span style=&quot;background-color: initial;&quot;&gt;&lt;div&gt;- playerChunk:&amp;nbsp;&lt;span style=&quot;background-color: initial;&quot;&gt;Vector2Int&lt;/span&gt;&lt;span style=&quot;background-color: initial;&quot;&gt;&amp;nbsp;&lt;/span&gt;&lt;/div&gt;&lt;/span&gt;&lt;span style=&quot;background-color: initial;&quot;&gt;&lt;div&gt;&lt;br&gt;&lt;/div&gt;&lt;div&gt;- chunkPool:&amp;nbsp;&lt;span style=&quot;background-color: initial;&quot;&gt;ChunkPool&lt;/span&gt;&lt;span style=&quot;background-color: initial;&quot;&gt;&amp;nbsp;&lt;/span&gt;&lt;/div&gt;&lt;/span&gt;&lt;span style=&quot;background-color: initial;&quot;&gt;&lt;div&gt;&lt;span style=&quot;background-color: initial;&quot;&gt;- player:&amp;nbsp;&lt;/span&gt;&lt;span style=&quot;background-color: initial;&quot;&gt;Transform&lt;/span&gt;&lt;span style=&quot;background-color: initial;&quot;&gt;&amp;nbsp;&lt;/span&gt;&lt;/div&gt;&lt;/span&gt;&lt;span style=&quot;background-color: initial;&quot;&gt;&lt;div&gt;&lt;br&gt;&lt;/div&gt;&lt;div&gt;&lt;span style=&quot;background-color: initial;&quot;&gt;- terrainProfile:&amp;nbsp;&lt;/span&gt;&lt;span style=&quot;background-color: initial;&quot;&gt;CubicChunk.TerrainProfile&lt;/span&gt;&lt;br&gt;&lt;/div&gt;&lt;/span&gt;&lt;span style=&quot;background-color: initial;&quot;&gt;&lt;div&gt;&lt;br&gt;&lt;/div&gt;&lt;div&gt;- dynamicRender:&amp;nbsp;&lt;span style=&quot;background-color: initial;&quot;&gt;bool&lt;/span&gt;&lt;span style=&quot;background-color: initial;&quot;&gt;&amp;nbsp;&lt;/span&gt;&lt;/div&gt;&lt;/span&gt;&lt;/div&gt;" style="text;strokeColor=none;fillColor=none;align=left;verticalAlign=top;spacingLeft=4;spacingRight=4;overflow=hidden;rotatable=0;points=[[0,0.5],[1,0.5]];portConstraint=eastwest;whiteSpace=wrap;html=1;" parent="fkbyZMpydI6FCDIi1KVa-9" vertex="1">
          <mxGeometry y="26" width="430" height="404" as="geometry" />
        </mxCell>
        <mxCell id="fkbyZMpydI6FCDIi1KVa-11" value="" style="line;strokeWidth=1;fillColor=none;align=left;verticalAlign=middle;spacingTop=-1;spacingLeft=3;spacingRight=3;rotatable=0;labelPosition=right;points=[];portConstraint=eastwest;strokeColor=inherit;" parent="fkbyZMpydI6FCDIi1KVa-9" vertex="1">
          <mxGeometry y="430" width="430" height="8" as="geometry" />
        </mxCell>
        <mxCell id="fkbyZMpydI6FCDIi1KVa-12" value="+ Start(): Void&lt;div&gt;+&amp;nbsp;&lt;span style=&quot;background-color: initial;&quot;&gt;Update(): Void&lt;/span&gt;&lt;/div&gt;&lt;div&gt;&lt;span style=&quot;background-color: initial;&quot;&gt;+ ModifyBlock(&lt;/span&gt;&lt;span style=&quot;background-color: initial;&quot;&gt;Vector3 pos, bool place&lt;/span&gt;&lt;span style=&quot;background-color: initial;&quot;&gt;):&amp;nbsp;&lt;/span&gt;&lt;span style=&quot;background-color: initial;&quot;&gt;void&lt;/span&gt;&lt;span style=&quot;background-color: initial;&quot;&gt;&amp;nbsp;&lt;/span&gt;&lt;/div&gt;&lt;div&gt;&lt;span style=&quot;background-color: initial;&quot;&gt;+&amp;nbsp;&lt;/span&gt;&lt;span style=&quot;background-color: initial;&quot;&gt;OnApplicationQuit(): void&lt;/span&gt;&lt;/div&gt;&lt;div&gt;&lt;span style=&quot;background-color: initial;&quot;&gt;&lt;br&gt;&lt;/span&gt;&lt;/div&gt;&lt;div&gt;&lt;span style=&quot;background-color: initial;&quot;&gt;-&amp;nbsp;&lt;/span&gt;&lt;span style=&quot;background-color: initial;&quot;&gt;PlacePlayer():&amp;nbsp;&lt;/span&gt;&lt;span style=&quot;background-color: initial;&quot;&gt;IEnumerator&lt;/span&gt;&lt;/div&gt;&lt;div&gt;&lt;span style=&quot;background-color: initial;&quot;&gt;&lt;br&gt;&lt;/span&gt;&lt;/div&gt;&lt;div&gt;&lt;span style=&quot;background-color: initial;&quot;&gt;-&lt;/span&gt;&lt;span style=&quot;background-color: initial;&quot;&gt;&amp;nbsp;CreateVariationsWithOffset(Vector3Int pos):&amp;nbsp;&lt;/span&gt;&lt;span style=&quot;background-color: initial;&quot;&gt;List&amp;lt;Vector3Int[]&amp;gt;&lt;/span&gt;&lt;/div&gt;&lt;div&gt;&lt;span style=&quot;background-color: initial;&quot;&gt;&lt;br&gt;&lt;/span&gt;&lt;/div&gt;&lt;div&gt;&lt;span style=&quot;background-color: initial;&quot;&gt;-&lt;/span&gt;&lt;span style=&quot;background-color: initial;&quot;&gt;&amp;nbsp;CalculateRing(int radius, Vector2Int center, int gridSize):&amp;nbsp;&lt;/span&gt;&lt;span style=&quot;background-color: initial;&quot;&gt;List&amp;lt;Vector2Int&amp;gt;&lt;/span&gt;&lt;/div&gt;&lt;div&gt;&lt;span style=&quot;background-color: initial;&quot;&gt;-&lt;/span&gt;&lt;span style=&quot;background-color: initial;&quot;&gt;&amp;nbsp;CalculateCircle(int radius, Vector2Int center, int gridSize):&amp;nbsp;&lt;/span&gt;&lt;span style=&quot;background-color: initial;&quot;&gt;List&amp;lt;Vector2Int&amp;gt;&lt;/span&gt;&lt;/div&gt;&lt;div&gt;&lt;span style=&quot;background-color: initial;&quot;&gt;&lt;br&gt;&lt;/span&gt;&lt;/div&gt;&lt;div&gt;&lt;span style=&quot;background-color: initial;&quot;&gt;-&lt;/span&gt;&lt;span style=&quot;background-color: initial;&quot;&gt;&amp;nbsp;GetIndexOfChunkByChunkPosition(Vector3Int chunkPosition):&amp;nbsp;&lt;/span&gt;&lt;span style=&quot;background-color: initial;&quot;&gt;Vector3Int&lt;/span&gt;&lt;/div&gt;&lt;div&gt;- GetIndexOfChunkAtPosition(Vector3Int positionInWorld):&amp;nbsp;&lt;span style=&quot;background-color: initial;&quot;&gt;Vector3Int&lt;/span&gt;&lt;/div&gt;&lt;div&gt;- GetChunkAtPosition(Vector3Int positionInWorld):&amp;nbsp;&lt;span style=&quot;background-color: initial;&quot;&gt;CubicChunk&lt;/span&gt;&lt;/div&gt;&lt;div&gt;- GetChunkByIndex(Vector3Int index):&amp;nbsp;&lt;span style=&quot;background-color: initial;&quot;&gt;CubicChunk&lt;/span&gt;&lt;/div&gt;&lt;div&gt;&lt;br&gt;&lt;/div&gt;&lt;div&gt;&lt;br&gt;&lt;/div&gt;" style="text;strokeColor=none;fillColor=none;align=left;verticalAlign=top;spacingLeft=4;spacingRight=4;overflow=hidden;rotatable=0;points=[[0,0.5],[1,0.5]];portConstraint=eastwest;whiteSpace=wrap;html=1;" parent="fkbyZMpydI6FCDIi1KVa-9" vertex="1">
          <mxGeometry y="438" width="430" height="242" as="geometry" />
        </mxCell>
        <mxCell id="fkbyZMpydI6FCDIi1KVa-13" value="CubicChunk" style="swimlane;fontStyle=1;align=center;verticalAlign=top;childLayout=stackLayout;horizontal=1;startSize=26;horizontalStack=0;resizeParent=1;resizeParentMax=0;resizeLast=0;collapsible=1;marginBottom=0;whiteSpace=wrap;html=1;" parent="1" vertex="1">
          <mxGeometry x="-150" y="105" width="400" height="839" as="geometry" />
        </mxCell>
        <mxCell id="fkbyZMpydI6FCDIi1KVa-14" value="&lt;div&gt;&lt;span style=&quot;background-color: initial;&quot;&gt;+ Position:&amp;nbsp;&lt;/span&gt;&lt;span style=&quot;background-color: initial;&quot;&gt;Vector3Int&lt;/span&gt;&lt;span style=&quot;background-color: initial;&quot;&gt;&amp;nbsp;&lt;/span&gt;&lt;br&gt;&lt;/div&gt;&lt;div&gt;+ chunkObject:&amp;nbsp;&lt;span style=&quot;background-color: initial;&quot;&gt;readonly GameObject&lt;/span&gt;&lt;/div&gt;&lt;div&gt;+ chunkTransform:&amp;nbsp;&lt;span style=&quot;background-color: initial;&quot;&gt;readonly Transform&lt;/span&gt;&lt;/div&gt;&lt;div&gt;&lt;br&gt;&lt;/div&gt;&lt;div&gt;- meshFilter:&amp;nbsp;&lt;span style=&quot;background-color: initial;&quot;&gt;readonly&lt;/span&gt;&lt;span style=&quot;background-color: initial;&quot;&gt;&amp;nbsp;&lt;/span&gt;&lt;span style=&quot;background-color: initial;&quot;&gt;MeshFilter&lt;/span&gt;&lt;/div&gt;&lt;div&gt;- meshCollider:&amp;nbsp;&lt;span style=&quot;background-color: initial;&quot;&gt;readonly&lt;/span&gt;&lt;span style=&quot;background-color: initial;&quot;&gt;&amp;nbsp;&lt;/span&gt;&lt;span style=&quot;background-color: initial;&quot;&gt;MeshCollider&lt;/span&gt;&lt;span style=&quot;background-color: initial;&quot;&gt;&amp;nbsp;&lt;/span&gt;&lt;/div&gt;&lt;div&gt;- meshRenderer:&amp;nbsp;&lt;span style=&quot;background-color: initial;&quot;&gt;readonly&lt;/span&gt;&lt;span style=&quot;background-color: initial;&quot;&gt;&amp;nbsp;&lt;/span&gt;&lt;span style=&quot;background-color: initial;&quot;&gt;MeshRenderer&lt;/span&gt;&lt;span style=&quot;background-color: initial;&quot;&gt;&amp;nbsp;&lt;/span&gt;&lt;/div&gt;&lt;div&gt;&lt;br&gt;&lt;/div&gt;&lt;div&gt;- vertices:&amp;nbsp;List&amp;lt;Vector3&amp;gt;&lt;/div&gt;&lt;div&gt;- triangles:&amp;nbsp;&lt;span style=&quot;background-color: initial;&quot;&gt;List&amp;lt;int&amp;gt;&lt;/span&gt;&lt;span style=&quot;background-color: initial;&quot;&gt;&amp;nbsp;&lt;/span&gt;&lt;/div&gt;&lt;div&gt;&lt;br&gt;&lt;/div&gt;&lt;div&gt;+ cubesPerAxis = 16:&amp;nbsp;&lt;span style=&quot;background-color: initial;&quot;&gt;const int&lt;/span&gt;&lt;/div&gt;&lt;div&gt;+ valuesPerAxis = cubesPerAxis + 1:&amp;nbsp;&lt;span style=&quot;background-color: initial;&quot;&gt;const int&lt;/span&gt;&lt;/div&gt;&lt;div&gt;+ totalValues = valuesPerAxis * valuesPerAxis * valuesPerAxis:&amp;nbsp;&lt;span style=&quot;background-color: initial;&quot;&gt;const int&lt;/span&gt;&lt;/div&gt;&lt;div&gt;&lt;span style=&quot;background-color: initial;&quot;&gt;- marchingNumThreads = cubesPerAxis / 4:&amp;nbsp;&lt;/span&gt;&lt;span style=&quot;background-color: initial;&quot;&gt;const int&lt;/span&gt;&lt;span style=&quot;background-color: initial;&quot;&gt;&amp;nbsp;&lt;/span&gt;&lt;br&gt;&lt;/div&gt;&lt;div&gt;- noiseNumThreads = valuesPerAxis / 1:&amp;nbsp;&lt;span style=&quot;background-color: initial;&quot;&gt;const int&lt;/span&gt;&lt;span style=&quot;background-color: initial;&quot;&gt;&amp;nbsp;&lt;/span&gt;&lt;/div&gt;&lt;div&gt;&lt;br&gt;&lt;/div&gt;&lt;div&gt;- smoothTerrain:&amp;nbsp;&lt;span style=&quot;background-color: initial;&quot;&gt;static bool&lt;/span&gt;&lt;/div&gt;&lt;div&gt;&lt;br&gt;&lt;/div&gt;&lt;div&gt;- terrainData:&amp;nbsp;&lt;span style=&quot;background-color: initial;&quot;&gt;float[]&lt;/span&gt;&lt;/div&gt;&lt;div&gt;&lt;span style=&quot;background-color: initial;&quot;&gt;&lt;br&gt;&lt;/span&gt;&lt;/div&gt;&lt;div&gt;&lt;span style=&quot;background-color: initial;&quot;&gt;+ TerrainProfile:&amp;nbsp;&lt;/span&gt;&lt;span style=&quot;background-color: initial;&quot;&gt;enum&lt;/span&gt;&lt;span style=&quot;background-color: initial;&quot;&gt;&amp;nbsp;&lt;/span&gt;&lt;span style=&quot;background-color: initial;&quot;&gt;&lt;br&gt;&lt;/span&gt;&lt;/div&gt;&lt;div&gt;&lt;span style=&quot;background-color: initial;&quot;&gt;-&amp;nbsp;&lt;/span&gt;&lt;span style=&quot;background-color: initial;&quot;&gt;Triangle: struct&lt;/span&gt;&lt;br&gt;&lt;/div&gt;&lt;div&gt;&lt;span style=&quot;background-color: initial;&quot;&gt;&lt;br&gt;&lt;/span&gt;&lt;/div&gt;&lt;div&gt;&lt;span style=&quot;background-color: initial;&quot;&gt;&lt;div&gt;- marchingCompute: static readonly ComputeShader&lt;/div&gt;&lt;div&gt;- noiseCompute: static readonly ComputeShader&lt;/div&gt;&lt;div&gt;&lt;br&gt;&lt;/div&gt;&lt;div&gt;- noise2DBuffer: static readonly ComputeBuffer&lt;/div&gt;&lt;div&gt;- terrainDataBuffer: static readonly ComputeBuffer&lt;/div&gt;&lt;div&gt;- triangleBuffer: static readonly ComputeBuffer&lt;/div&gt;&lt;div&gt;- triangleCountBuffer: static readonly ComputeBuffer&lt;/div&gt;&lt;div&gt;- triangleCountArray: int[]&lt;/div&gt;&lt;/span&gt;&lt;/div&gt;" style="text;strokeColor=none;fillColor=none;align=left;verticalAlign=top;spacingLeft=4;spacingRight=4;overflow=hidden;rotatable=0;points=[[0,0.5],[1,0.5]];portConstraint=eastwest;whiteSpace=wrap;html=1;" parent="fkbyZMpydI6FCDIi1KVa-13" vertex="1">
          <mxGeometry y="26" width="400" height="474" as="geometry" />
        </mxCell>
        <mxCell id="fkbyZMpydI6FCDIi1KVa-15" value="" style="line;strokeWidth=1;fillColor=none;align=left;verticalAlign=middle;spacingTop=-1;spacingLeft=3;spacingRight=3;rotatable=0;labelPosition=right;points=[];portConstraint=eastwest;strokeColor=inherit;" parent="fkbyZMpydI6FCDIi1KVa-13" vertex="1">
          <mxGeometry y="500" width="400" height="8" as="geometry" />
        </mxCell>
        <mxCell id="fkbyZMpydI6FCDIi1KVa-16" value="&lt;div&gt;+ static CubicChunk()&lt;/div&gt;&lt;div&gt;+ CubicChunk()&lt;/div&gt;&lt;div&gt;&lt;br&gt;&lt;/div&gt;&lt;div&gt;+ OverwriteTerrainValue(Vector3Int valueCoord, float value): void&amp;nbsp;&lt;/div&gt;&lt;div&gt;&lt;br&gt;&lt;/div&gt;&lt;div&gt;- IndexFromCoord(Vector3Int coord): int&lt;/div&gt;&lt;div&gt;&lt;br&gt;&lt;/div&gt;&lt;div&gt;+ Move(Vector3Int position): void&lt;/div&gt;&lt;div&gt;+ Build(): void&lt;/div&gt;&lt;div&gt;+ RecalculateMesh(): void&lt;/div&gt;&lt;div&gt;&lt;br&gt;&lt;/div&gt;&lt;div&gt;&lt;div&gt;+ static ReleaseBuffers(): void&lt;/div&gt;&lt;div&gt;&lt;br&gt;&lt;/div&gt;&lt;div&gt;- ComputeMesh(): void&lt;/div&gt;&lt;div&gt;- ComputeNoise(): void&amp;nbsp;&lt;/div&gt;&lt;/div&gt;&lt;div&gt;&lt;br&gt;&lt;/div&gt;&lt;div&gt;- ApplyMesh(): void&lt;/div&gt;&lt;div&gt;&lt;br&gt;&lt;/div&gt;&lt;div&gt;+ SetActive(bool b): void&lt;/div&gt;&lt;div&gt;+ static SetTerainParameters(bool smoothTerrain, bool meshSharedVertices, bool cubeSharedVertices): void&amp;nbsp;&lt;/div&gt;&lt;div&gt;+ static SetTerrainProfile(TerrainProfile profile): void&amp;nbsp;&lt;/div&gt;" style="text;strokeColor=none;fillColor=none;align=left;verticalAlign=top;spacingLeft=4;spacingRight=4;overflow=hidden;rotatable=0;points=[[0,0.5],[1,0.5]];portConstraint=eastwest;whiteSpace=wrap;html=1;" parent="fkbyZMpydI6FCDIi1KVa-13" vertex="1">
          <mxGeometry y="508" width="400" height="331" as="geometry" />
        </mxCell>
        <mxCell id="fkbyZMpydI6FCDIi1KVa-19" value="" style="endArrow=diamondThin;endFill=1;endSize=24;html=1;rounded=0;entryX=0;entryY=0.5;entryDx=0;entryDy=0;exitX=0.5;exitY=0;exitDx=0;exitDy=0;" parent="1" source="fkbyZMpydI6FCDIi1KVa-13" target="fkbyZMpydI6FCDIi1KVa-10" edge="1">
          <mxGeometry width="160" relative="1" as="geometry">
            <mxPoint x="28" y="417" as="sourcePoint" />
            <mxPoint x="188" y="417" as="targetPoint" />
            <Array as="points">
              <mxPoint x="50" y="8" />
              <mxPoint x="361" y="8" />
              <mxPoint x="361" y="405" />
            </Array>
          </mxGeometry>
        </mxCell>
        <mxCell id="fkbyZMpydI6FCDIi1KVa-22" value="ChunkPool" style="swimlane;fontStyle=1;align=center;verticalAlign=top;childLayout=stackLayout;horizontal=1;startSize=26;horizontalStack=0;resizeParent=1;resizeParentMax=0;resizeLast=0;collapsible=1;marginBottom=0;whiteSpace=wrap;html=1;" parent="1" vertex="1">
          <mxGeometry x="328" y="905" width="270" height="180" as="geometry" />
        </mxCell>
        <mxCell id="fkbyZMpydI6FCDIi1KVa-23" value="&lt;div&gt;- poolObj: readonly GameObject&amp;nbsp;&lt;/div&gt;&lt;div&gt;- poolTransform: readonly Transform&lt;/div&gt;&lt;div&gt;- pool: List&amp;lt;CubicChunk&amp;gt;&lt;/div&gt;&lt;div&gt;- inPool: int&amp;nbsp;&lt;/div&gt;" style="text;strokeColor=none;fillColor=none;align=left;verticalAlign=top;spacingLeft=4;spacingRight=4;overflow=hidden;rotatable=0;points=[[0,0.5],[1,0.5]];portConstraint=eastwest;whiteSpace=wrap;html=1;" parent="fkbyZMpydI6FCDIi1KVa-22" vertex="1">
          <mxGeometry y="26" width="270" height="74" as="geometry" />
        </mxCell>
        <mxCell id="fkbyZMpydI6FCDIi1KVa-24" value="" style="line;strokeWidth=1;fillColor=none;align=left;verticalAlign=middle;spacingTop=-1;spacingLeft=3;spacingRight=3;rotatable=0;labelPosition=right;points=[];portConstraint=eastwest;strokeColor=inherit;" parent="fkbyZMpydI6FCDIi1KVa-22" vertex="1">
          <mxGeometry y="100" width="270" height="8" as="geometry" />
        </mxCell>
        <mxCell id="fkbyZMpydI6FCDIi1KVa-25" value="&lt;div&gt;+ ChunkPool()&lt;/div&gt;&lt;div&gt;&lt;br&gt;&lt;/div&gt;&lt;div&gt;+ GetFromPool(Transform parent): CubicChunk&amp;nbsp;&lt;/div&gt;&lt;div&gt;+ ReturnToPool(CubicChunk chunk): void&amp;nbsp;&lt;/div&gt;" style="text;strokeColor=none;fillColor=none;align=left;verticalAlign=top;spacingLeft=4;spacingRight=4;overflow=hidden;rotatable=0;points=[[0,0.5],[1,0.5]];portConstraint=eastwest;whiteSpace=wrap;html=1;" parent="fkbyZMpydI6FCDIi1KVa-22" vertex="1">
          <mxGeometry y="108" width="270" height="72" as="geometry" />
        </mxCell>
        <mxCell id="fkbyZMpydI6FCDIi1KVa-27" value="" style="endArrow=diamondThin;endFill=1;endSize=24;html=1;rounded=0;entryX=0;entryY=0.595;entryDx=0;entryDy=0;entryPerimeter=0;exitX=0.75;exitY=0;exitDx=0;exitDy=0;" parent="1" source="fkbyZMpydI6FCDIi1KVa-13" target="fkbyZMpydI6FCDIi1KVa-23" edge="1">
          <mxGeometry width="160" relative="1" as="geometry">
            <mxPoint x="268" y="1087" as="sourcePoint" />
            <mxPoint x="428" y="1087" as="targetPoint" />
            <Array as="points">
              <mxPoint x="150" y="54" />
              <mxPoint x="283" y="54" />
              <mxPoint x="283" y="975" />
            </Array>
          </mxGeometry>
        </mxCell>
        <mxCell id="fkbyZMpydI6FCDIi1KVa-28" value="" style="endArrow=diamondThin;endFill=1;endSize=24;html=1;rounded=0;entryX=-0.002;entryY=0.788;entryDx=0;entryDy=0;entryPerimeter=0;exitX=0.09;exitY=0.001;exitDx=0;exitDy=0;exitPerimeter=0;" parent="1" source="fkbyZMpydI6FCDIi1KVa-22" target="fkbyZMpydI6FCDIi1KVa-10" edge="1">
          <mxGeometry width="160" relative="1" as="geometry">
            <mxPoint x="478" y="927" as="sourcePoint" />
            <mxPoint x="188" y="777" as="targetPoint" />
            <Array as="points">
              <mxPoint x="352" y="521" />
            </Array>
          </mxGeometry>
        </mxCell>
        <mxCell id="_sql6eok9KkxB-_r3Eai-1" value="&lt;b&gt;Static Tables&lt;/b&gt;" style="swimlane;fontStyle=0;childLayout=stackLayout;horizontal=1;startSize=26;fillColor=none;horizontalStack=0;resizeParent=1;resizeParentMax=0;resizeLast=0;collapsible=1;marginBottom=0;whiteSpace=wrap;html=1;" vertex="1" parent="1">
          <mxGeometry x="-112.5" y="965" width="325" height="130" as="geometry" />
        </mxCell>
        <mxCell id="_sql6eok9KkxB-_r3Eai-2" value="+ static readonly redirect: Vector3Int[]" style="text;strokeColor=none;fillColor=none;align=left;verticalAlign=top;spacingLeft=4;spacingRight=4;overflow=hidden;rotatable=0;points=[[0,0.5],[1,0.5]];portConstraint=eastwest;whiteSpace=wrap;html=1;" vertex="1" parent="_sql6eok9KkxB-_r3Eai-1">
          <mxGeometry y="26" width="325" height="26" as="geometry" />
        </mxCell>
        <mxCell id="_sql6eok9KkxB-_r3Eai-3" value="+ static readonly CornerTable: Vector3Int[]" style="text;strokeColor=none;fillColor=none;align=left;verticalAlign=top;spacingLeft=4;spacingRight=4;overflow=hidden;rotatable=0;points=[[0,0.5],[1,0.5]];portConstraint=eastwest;whiteSpace=wrap;html=1;" vertex="1" parent="_sql6eok9KkxB-_r3Eai-1">
          <mxGeometry y="52" width="325" height="26" as="geometry" />
        </mxCell>
        <mxCell id="_sql6eok9KkxB-_r3Eai-9" value="+ static readonly EdgeTable: int[,]" style="text;strokeColor=none;fillColor=none;align=left;verticalAlign=top;spacingLeft=4;spacingRight=4;overflow=hidden;rotatable=0;points=[[0,0.5],[1,0.5]];portConstraint=eastwest;whiteSpace=wrap;html=1;" vertex="1" parent="_sql6eok9KkxB-_r3Eai-1">
          <mxGeometry y="78" width="325" height="26" as="geometry" />
        </mxCell>
        <mxCell id="_sql6eok9KkxB-_r3Eai-4" value="+ static readonly TriangleTable: int[,]" style="text;strokeColor=none;fillColor=none;align=left;verticalAlign=top;spacingLeft=4;spacingRight=4;overflow=hidden;rotatable=0;points=[[0,0.5],[1,0.5]];portConstraint=eastwest;whiteSpace=wrap;html=1;" vertex="1" parent="_sql6eok9KkxB-_r3Eai-1">
          <mxGeometry y="104" width="325" height="26" as="geometry" />
        </mxCell>
      </root>
    </mxGraphModel>
  </diagram>
</mxfile>
